<svg xmlns="http://www.w3.org/2000/svg" width="20px" height="20px" viewBox="0 0 20 20" type="featured" cursor="pointer" fill="currentColor" overflow="visible" style="margin-right: 8px; fill: rgb(125, 125, 125); flex-shrink: 0;">
    <path fill-rule="evenodd" d="M5.188 10.06C5.2 12 5.875 12.848 6.5 13.893a2.074 2.074 0 01-.241 2.521 1.849 1.849 0 01-2.7 0 2.07 2.07 0 01-.24-2.52l.077-.13.255-.415c.504-.825.957-1.67.979-3.23V10c0-1.983-.68-2.837-1.312-3.893a2.074 2.074 0 01.241-2.521 1.849 1.849 0 012.7 0c.654.685.734 1.743.241 2.52l-.077.13-.271.44c-.504.828-.953 1.684-.964 3.264v.12zM16.44 3.586a2.07 2.07 0 01.24 2.52l-.077.13-.27.44c-.504.828-.953 1.684-.964 3.264v.12c.013 1.94.687 2.788 1.312 3.833a2.074 2.074 0 01-.241 2.521 1.849 1.849 0 01-2.7 0 2.072 2.072 0 01-.241-2.52l.078-.13.255-.415c.503-.825.957-1.67.979-3.23V10c0-1.983-.68-2.837-1.312-3.893a2.074 2.074 0 01.241-2.521 1.849 1.849 0 012.7 0zM10 8c1.054 0 1.91.895 1.91 2s-.856 2-1.91 2c-1.054 0-1.91-.895-1.91-2S8.947 8 10 8z"/>
</svg>